<svg width="22" height="22" viewBox="0 0 22 22" fill="none" xmlns="http://www.w3.org/2000/svg">
<path fill-rule="evenodd" clip-rule="evenodd" d="M2.19995 6.60002C2.19995 6.01655 2.43174 5.45697 2.84432 5.04439C3.2569 4.63181 3.81647 4.40002 4.39995 4.40002H8.79995L11 6.60002H15.4C15.9834 6.60002 16.543 6.83181 16.9556 7.24439C17.3682 7.65697 17.6 8.21655 17.6 8.80002V9.90002H8.79995C7.92474 9.90002 7.08537 10.2477 6.4665 10.8666C5.84763 11.4854 5.49995 12.3248 5.49995 13.2V14.85C5.49995 15.2876 5.32611 15.7073 5.01668 16.0168C4.70724 16.3262 4.28756 16.5 3.84995 16.5C3.41234 16.5 2.99266 16.3262 2.68323 16.0168C2.37379 15.7073 2.19995 15.2876 2.19995 14.85V6.60002Z" fill="#242936"/>
<path d="M6.59995 13.2C6.59995 12.6165 6.83174 12.0569 7.24432 11.6444C7.6569 11.2318 8.21647 11 8.79995 11H17.5999C18.1834 11 18.743 11.2318 19.1556 11.6444C19.5682 12.0569 19.7999 12.6165 19.7999 13.2V15.4C19.7999 15.9835 19.5682 16.5431 19.1556 16.9556C18.743 17.3682 18.1834 17.6 17.5999 17.6H2.19995H4.39995C4.98343 17.6 5.54301 17.3682 5.95559 16.9556C6.36817 16.5431 6.59995 15.9835 6.59995 15.4V13.2Z" fill="#242936"/>
</svg>
