<svg width="18" height="16" viewBox="0 0 18 16" fill="none" xmlns="http://www.w3.org/2000/svg">
<path fill-rule="evenodd" clip-rule="evenodd" d="M12.7712 0.50004L5.21357 0.5C2.57229 0.5 0.666748 2.63459 0.666748 5.38248V10.6175C0.666748 13.3654 2.57229 15.5 5.21357 15.5H12.7641C14.0328 15.4858 15.2336 14.9517 16.0939 14.0221C16.9542 13.0925 17.3989 11.8486 17.3245 10.58L17.3256 5.38248C17.3989 4.15142 16.9542 2.90746 16.0939 1.97787C15.2336 1.04828 14.0328 0.514209 12.7712 0.50004ZM5.21357 1.77369L12.7571 1.77365C13.6728 1.78393 14.5444 2.1716 15.1689 2.84635C15.7934 3.52111 16.1162 4.42406 16.0622 5.34491L16.0611 10.6175C16.1162 11.5759 15.7934 12.4789 15.1689 13.1536C14.5444 13.8284 13.6728 14.2161 12.7571 14.2264L5.21357 14.2263C3.30241 14.2263 1.93128 12.6904 1.93128 10.6175V5.38248C1.93128 3.30963 3.30241 1.77369 5.21357 1.77369ZM14.0201 5.19864C13.8019 4.92405 13.404 4.87963 13.1314 5.09942L9.71532 7.85354L9.61741 7.92235C9.21464 8.17462 8.68573 8.15132 8.29993 7.84843L4.85889 5.09776L4.78144 5.04467C4.51455 4.88939 4.16793 4.95026 3.97059 5.20071C3.75352 5.47622 3.79928 5.8768 4.0728 6.09544L7.5182 8.84957L7.65261 8.94795C8.51932 9.53824 9.66787 9.50561 10.4991 8.85302L13.9216 6.09379L13.9903 6.02959C14.2001 5.80218 14.2185 5.44827 14.0201 5.19864Z" fill="#242936"/>
</svg>
