<svg width="20" height="20" viewBox="0 0 20 20" fill="none" xmlns="http://www.w3.org/2000/svg">
<path fill-rule="evenodd" clip-rule="evenodd" d="M3.30722 11.5965L11.3827 3.6806C12.4217 2.66213 14.1069 2.66213 15.1459 3.6806L16.2245 4.73791C17.2635 5.75637 17.2635 7.40829 16.2245 8.42675L8.11717 16.3739C7.65359 16.8283 7.02506 17.0833 6.36901 17.0833H3.04878C2.74035 17.0833 2.49249 16.8342 2.50017 16.532L2.58369 13.248C2.6003 12.6273 2.85939 12.0355 3.30722 11.5965ZM15.4484 5.49867L14.3698 4.44136C13.7594 3.84305 12.7691 3.84305 12.1588 4.44136L11.5319 5.05589L14.8218 8.28018L15.4484 7.66599C16.0588 7.06768 16.0588 6.09698 15.4484 5.49867ZM4.08331 12.3573L10.7558 5.81665L14.0457 9.04094L7.34108 15.6131L7.2519 15.6932C7.00559 15.8955 6.69352 16.0075 6.36901 16.0075L3.61121 16.0071L3.68089 13.2755C3.69012 12.9308 3.83438 12.6013 4.08331 12.3573ZM17.5 16.5455C17.5 16.2484 17.2543 16.0075 16.9512 16.0075H11.2258L11.1514 16.0124C10.8835 16.0481 10.677 16.2731 10.677 16.5455C10.677 16.8426 10.9227 17.0834 11.2258 17.0834H16.9512L17.0257 17.0785C17.2935 17.0429 17.5 16.8178 17.5 16.5455Z" fill="#242936"/>
</svg>
