<svg width="32" height="32" viewBox="0 0 32 32" fill="none" xmlns="http://www.w3.org/2000/svg">
<circle cx="16" cy="16" r="16" fill="white"/>
<path d="M9 16H9.01H9ZM16 16H16.01H16ZM23 16H23.01H23ZM10 16C10 16.2652 9.89464 16.5196 9.70711 16.7071C9.51957 16.8946 9.26522 17 9 17C8.73478 17 8.48043 16.8946 8.29289 16.7071C8.10536 16.5196 8 16.2652 8 16C8 15.7348 8.10536 15.4804 8.29289 15.2929C8.48043 15.1054 8.73478 15 9 15C9.26522 15 9.51957 15.1054 9.70711 15.2929C9.89464 15.4804 10 15.7348 10 16V16ZM17 16C17 16.2652 16.8946 16.5196 16.7071 16.7071C16.5196 16.8946 16.2652 17 16 17C15.7348 17 15.4804 16.8946 15.2929 16.7071C15.1054 16.5196 15 16.2652 15 16C15 15.7348 15.1054 15.4804 15.2929 15.2929C15.4804 15.1054 15.7348 15 16 15C16.2652 15 16.5196 15.1054 16.7071 15.2929C16.8946 15.4804 17 15.7348 17 16V16ZM24 16C24 16.2652 23.8946 16.5196 23.7071 16.7071C23.5196 16.8946 23.2652 17 23 17C22.7348 17 22.4804 16.8946 22.2929 16.7071C22.1054 16.5196 22 16.2652 22 16C22 15.7348 22.1054 15.4804 22.2929 15.2929C22.4804 15.1054 22.7348 15 23 15C23.2652 15 23.5196 15.1054 23.7071 15.2929C23.8946 15.4804 24 15.7348 24 16V16Z" stroke="#80899C" stroke-width="1.33333" stroke-linecap="round" stroke-linejoin="round"/>
</svg>
