<svg width="18" height="20" viewBox="0 0 18 20" fill="none" xmlns="http://www.w3.org/2000/svg">
<path fill-rule="evenodd" clip-rule="evenodd" d="M11.6065 0.0118984C11.5634 0.0042104 11.5191 0.000198364 11.4738 0.000198364C11.4285 0.000198364 11.3842 0.0042104 11.3411 0.0118984H5.08449C2.59719 0.0118984 0.500488 2.02973 0.500488 4.4909V15.2279C0.500488 17.8254 2.50133 19.8649 5.08449 19.8649H13.0725C15.5282 19.8649 17.5525 17.7229 17.5525 15.2279V6.0379C17.5525 5.84426 17.4776 5.65812 17.3435 5.51844L12.2775 0.242444C12.136 0.0951554 11.9407 0.0118984 11.7365 0.0118984H11.6065ZM10.7238 1.5111L5.08449 1.5119C3.41302 1.5119 2.00049 2.8713 2.00049 4.4909V15.2279C2.00049 17.0034 3.33625 18.3649 5.08449 18.3649H13.0725C14.6802 18.3649 16.0525 16.9128 16.0525 15.2279L16.0522 6.98328L15.1757 6.98627C14.8422 6.98586 14.4629 6.98516 14.0412 6.9842C12.2709 6.98046 10.8265 5.59367 10.729 3.8476L10.7238 3.6592V1.5111ZM15.2312 5.48404L14.0445 5.4842C13.0381 5.48207 12.2238 4.66576 12.2238 3.6592V2.35205L15.2312 5.48404ZM7.89079 9.25599V14.0136L7.89763 14.1154C7.9473 14.4814 8.26109 14.7636 8.64079 14.7636C9.055 14.7636 9.39079 14.4278 9.39079 14.0136V9.25674L10.9479 10.8204L11.0319 10.8932C11.3251 11.1117 11.7418 11.0884 12.0086 10.8226C12.3021 10.5304 12.3031 10.0555 12.0108 9.76199L9.17327 6.91243C9.14706 6.88601 9.1189 6.86152 9.08902 6.83922L9.0876 6.83799C8.7935 6.61901 8.37533 6.64338 8.10885 6.91108L5.27085 9.76208L5.19842 9.84637C4.98124 10.1405 5.0064 10.5571 5.27327 10.8227L5.35756 10.8952C5.65166 11.1123 6.06827 11.0872 6.33393 10.8203L7.89079 9.25599Z" fill="#646C7D"/>
</svg>
