<svg width="14" height="18" viewBox="0 0 14 18" fill="none" xmlns="http://www.w3.org/2000/svg">
<path fill-rule="evenodd" clip-rule="evenodd" d="M7.00356 0.666626C4.55854 0.666626 2.57646 2.65716 2.57646 5.1126C2.57646 7.56805 4.55854 9.55858 7.00356 9.55858C9.44858 9.55858 11.4307 7.56805 11.4307 5.1126C11.4307 2.65716 9.44858 0.666626 7.00356 0.666626ZM7.00356 1.87302C8.78514 1.87302 10.2294 3.32343 10.2294 5.1126C10.2294 6.90178 8.78514 8.35219 7.00356 8.35219C5.22198 8.35219 3.77773 6.90178 3.77773 5.1126C3.77773 3.32343 5.22198 1.87302 7.00356 1.87302ZM5.19169 11.3507C4.54359 11.3957 3.88849 11.4882 3.24231 11.6267C1.99513 11.8836 0.997357 12.3969 0.572679 13.2499C0.412502 13.5834 0.331971 13.9406 0.33333 14.3022C0.332849 14.6612 0.412729 15.0189 0.567161 15.346C0.974932 16.1892 1.85648 16.6663 3.04685 16.9308L3.26008 16.9753C3.88872 17.1172 4.54402 17.2127 5.2037 17.2575C5.25989 17.274 5.39379 17.2893 5.53995 17.2967L5.66016 17.3012C5.72197 17.3027 5.79213 17.303 5.89665 17.303C6.84485 17.3552 7.82783 17.34 8.80624 17.2567C9.32764 17.221 9.85256 17.1529 10.3731 17.053L10.7625 16.9721C12.0479 16.7185 13.0105 16.2363 13.4321 15.347C13.7448 14.6867 13.7448 13.9205 13.4323 13.2606C13.0117 12.3735 12.0614 11.8953 10.7528 11.6257C10.2394 11.5161 9.71765 11.435 9.19221 11.3832L8.80807 11.3507C7.60492 11.2446 6.39483 11.2446 5.19169 11.3507ZM8.70294 12.5525L8.71351 12.5533C9.31655 12.5957 9.9159 12.6804 10.5072 12.8066C11.4792 13.0069 12.1389 13.3388 12.3476 13.7789C12.5047 14.1108 12.5047 14.4964 12.3474 14.8286C12.1524 15.2398 11.56 15.5576 10.7037 15.7517L10.5162 15.7914C9.9133 15.926 9.31593 16.0127 8.71461 16.0539C7.78159 16.1332 6.8541 16.1476 5.92895 16.0975L5.60095 16.0919C5.50989 16.0873 5.43315 16.0785 5.36204 16.0642C4.79891 16.0217 4.2922 15.9544 3.8002 15.8569L3.50644 15.7947C2.5314 15.6036 1.86593 15.2702 1.65017 14.8241C1.57468 14.6641 1.53435 14.4835 1.53459 14.3007C1.53392 14.119 1.57371 13.9425 1.65096 13.7815C1.86075 13.3603 2.56597 12.9975 3.48836 12.8075C4.08392 12.6799 4.68299 12.5953 5.28576 12.5533C6.43 12.4525 7.56975 12.4525 8.70294 12.5525Z" fill="#242936"/>
</svg>
